<svg width="360" height="300" viewBox="0 0 360 300" fill="none" xmlns="http://www.w3.org/2000/svg">
<mask id="path-1-inside-1_0_334" fill="white">
<path d="M0.320026 0.0954285C0.235157 0.0954285 0.153788 0.179352 0.0937762 0.328644C0.0337645 0.477936 2.61674e-05 0.680359 2.61489e-05 0.89151L5.82637e-06 253.354C5.80791e-06 253.565 0.0337442 253.768 0.0937558 253.917C0.153767 254.066 0.235136 254.15 0.320006 254.15L66.368 254.15L126.374 299.965C126.433 300.012 126.495 300.012 126.554 299.965C126.592 299.969 126.631 299.951 126.666 299.912C126.702 299.874 126.733 299.816 126.758 299.742C126.814 299.63 126.852 299.473 126.866 299.299C126.88 299.125 126.869 298.944 126.835 298.787L106.458 254.023L359.68 254.023C359.765 254.023 359.846 253.939 359.906 253.79C359.966 253.64 360 253.438 360 253.227L360 47.3523C360 47.1412 359.966 46.9387 359.906 46.7894C359.846 46.6402 359.765 46.5562 359.68 46.5562L349.619 46.5562L332.07 0.254851C332.009 0.100768 331.927 0.00970309 331.84 -1.50721e-06L0.320026 0.0954285Z"/>
</mask>
<path d="M0.320026 0.0954285C0.235157 0.0954285 0.153788 0.179352 0.0937762 0.328644C0.0337645 0.477936 2.61674e-05 0.680359 2.61489e-05 0.89151L5.82637e-06 253.354C5.80791e-06 253.565 0.0337442 253.768 0.0937558 253.917C0.153767 254.066 0.235136 254.15 0.320006 254.15L66.368 254.15L126.374 299.965C126.433 300.012 126.495 300.012 126.554 299.965C126.592 299.969 126.631 299.951 126.666 299.912C126.702 299.874 126.733 299.816 126.758 299.742C126.814 299.63 126.852 299.473 126.866 299.299C126.88 299.125 126.869 298.944 126.835 298.787L106.458 254.023L359.68 254.023C359.765 254.023 359.846 253.939 359.906 253.79C359.966 253.64 360 253.438 360 253.227L360 47.3523C360 47.1412 359.966 46.9387 359.906 46.7894C359.846 46.6402 359.765 46.5562 359.68 46.5562L349.619 46.5562L332.07 0.254851C332.009 0.100768 331.927 0.00970309 331.84 -1.50721e-06L0.320026 0.0954285Z" fill="#F8F8F8"/>
<path d="M0.320026 0.0954285L0.320314 1.09543L0.320026 1.09543L0.320026 0.0954285ZM2.61489e-05 0.89151L-0.999974 0.89151L2.61489e-05 0.89151ZM5.82637e-06 253.354L1.00001 253.354L5.82637e-06 253.354ZM66.368 254.15L66.368 253.15L66.7061 253.15L66.9748 253.355L66.368 254.15ZM126.374 299.965L126.981 299.17L126.989 299.176L126.997 299.182L126.374 299.965ZM126.554 299.965L125.931 299.182L126.248 298.931L126.651 298.97L126.554 299.965ZM126.758 299.742L125.813 299.418L125.834 299.357L125.862 299.299L126.758 299.742ZM126.835 298.787L127.745 298.373L127.79 298.471L127.813 298.576L126.835 298.787ZM106.458 254.023L105.547 254.437L104.904 253.023L106.458 253.023L106.458 254.023ZM349.619 46.5562L349.619 47.5562L348.929 47.5562L348.684 46.9106L349.619 46.5562ZM332.07 0.254851L333 -0.114137L333.003 -0.106874L333.006 -0.0995497L332.07 0.254851ZM331.84 -1.50721e-06L331.84 -1L331.895 -1.00003L331.951 -0.993837L331.84 -1.50721e-06ZM0.320026 1.09543C0.630439 1.09543 0.831792 0.938477 0.91537 0.852295C0.958818 0.807526 0.98511 0.768433 0.999004 0.745361C1.01333 0.721588 1.01995 0.70578 1.02163 0.701599L-0.834073 -0.0443116C-0.774296 -0.193024 -0.678232 -0.377289 -0.520211 -0.540222C-0.359729 -0.705658 -0.0752557 -0.904572 0.320026 -0.904572L0.320026 1.09543ZM1.02163 0.701599C1.02416 0.695282 1.01755 0.710754 1.0108 0.751221C1.00441 0.789551 1.00003 0.83786 1.00003 0.89151L-0.999974 0.89151C-0.999974 0.590301 -0.954037 0.25415 -0.834073 -0.0443116L1.02163 0.701599ZM1.00003 0.89151L1.00001 253.354L-0.999994 253.354L-0.999974 0.89151L1.00003 0.89151ZM1.00001 253.354C1.00001 253.408 1.0044 253.456 1.0108 253.495C1.01756 253.535 1.02418 253.551 1.02161 253.544L-0.834093 254.29C-0.954095 253.992 -0.999994 253.655 -0.999994 253.354L1.00001 253.354ZM1.02161 253.544C1.0199 253.54 1.01325 253.524 0.998854 253.5C0.984892 253.477 0.958517 253.438 0.914964 253.393C0.831024 253.307 0.629759 253.15 0.320006 253.15L0.320006 255.15C-0.0746165 255.15 -0.359001 254.952 -0.519846 254.786C-0.67809 254.623 -0.77426 254.439 -0.834093 254.29L1.02161 253.544ZM0.320006 253.15L66.368 253.15L66.368 255.15L0.320006 255.15L0.320006 253.15ZM66.9748 253.355L126.981 299.17L125.768 300.76L65.7611 254.945L66.9748 253.355ZM126.997 299.182C126.887 299.095 126.704 299 126.464 299C126.224 299 126.041 299.095 125.931 299.182L127.176 300.748C127.008 300.881 126.765 301 126.464 301C126.163 301 125.92 300.881 125.752 300.748L126.997 299.182ZM126.651 298.97C126.275 298.933 126.027 299.131 125.93 299.236L127.403 300.589C127.235 300.771 126.909 301.005 126.456 300.96L126.651 298.97ZM125.93 299.236C125.88 299.29 125.852 299.337 125.837 299.364C125.822 299.392 125.815 299.411 125.813 299.418L127.704 300.067C127.654 300.214 127.565 300.412 127.403 300.589L125.93 299.236ZM125.862 299.299C125.855 299.313 125.853 299.32 125.853 299.321C125.852 299.321 125.854 299.317 125.856 299.308C125.86 299.29 125.866 299.259 125.869 299.219L127.863 299.379C127.842 299.633 127.784 299.924 127.655 300.186L125.862 299.299ZM125.869 299.219C125.876 299.133 125.869 299.051 125.858 298.998L127.813 298.576C127.869 298.836 127.884 299.116 127.863 299.379L125.869 299.219ZM125.925 299.201L105.547 254.437L107.368 253.609L127.745 298.373L125.925 299.201ZM106.458 253.023L359.68 253.023L359.68 255.023L106.458 255.023L106.458 253.023ZM359.68 253.023C359.369 253.023 359.168 253.18 359.085 253.266C359.041 253.311 359.015 253.35 359.001 253.373C358.987 253.397 358.98 253.413 358.978 253.417L360.834 254.163C360.774 254.311 360.678 254.496 360.52 254.659C360.36 254.824 360.075 255.023 359.68 255.023L359.68 253.023ZM358.978 253.417C358.976 253.423 358.982 253.408 358.989 253.367C358.996 253.329 359 253.28 359 253.227L361 253.227C361 253.528 360.954 253.864 360.834 254.163L358.978 253.417ZM359 253.227L359 47.3523L361 47.3523L361 253.227L359 253.227ZM359 47.3523C359 47.2987 358.996 47.2504 358.989 47.212C358.982 47.1715 358.976 47.1561 358.978 47.1624L360.834 46.4165C360.954 46.7149 361 47.0511 361 47.3523L359 47.3523ZM358.978 47.1624C358.98 47.1666 358.987 47.1824 359.001 47.2061C359.015 47.2292 359.041 47.2683 359.085 47.313C359.168 47.3992 359.369 47.5562 359.68 47.5562L359.68 45.5562C360.075 45.5562 360.36 45.7552 360.52 45.9206C360.678 46.0835 360.774 46.2678 360.834 46.4165L358.978 47.1624ZM359.68 47.5562L349.619 47.5562L349.619 45.5562L359.68 45.5562L359.68 47.5562ZM348.684 46.9106L331.135 0.609251L333.006 -0.0995497L350.554 46.2018L348.684 46.9106ZM331.141 0.623839C331.141 0.624632 331.146 0.635893 331.157 0.654692C331.167 0.672911 331.188 0.705321 331.223 0.744017C331.287 0.814848 331.453 0.963011 331.729 0.993834L331.951 -0.993837C332.314 -0.95331 332.564 -0.754762 332.707 -0.597444C332.85 -0.438692 332.941 -0.262483 333 -0.114137L331.141 0.623839ZM331.84 0.999998L0.320314 1.09543L0.319738 -0.904572L331.84 -1L331.84 0.999998Z" fill="black" mask="url(#path-1-inside-1_0_334)"/>
</svg>
