<svg width="131" height="118" viewBox="0 0 131 118" fill="none" xmlns="http://www.w3.org/2000/svg">
<path d="M69.8146 117L79.3978 103.164L92.6646 107.764L92.3135 95.3846L129 113.545L104.245 81.8246L118.956 77.1146L110.392 65.2301L122.508 55.8216L109.914 47.8468L117.805 35.0065L102.887 32.0124L105.482 17.4793L90.2529 19.8804L87.2024 5.60637L73.7169 13.0745L65.4345 0.999997L55.5176 12.5217L43.1199 4.27053L38.1067 18.2969L23.2686 14.9861L23.8442 29.6171L8.56868 31.69L14.6467 44.9563L0.999997 52.1365L11.7631 62.2417L1.58132 73.5561L15.5791 79.1356L10.2436 93.0584L25.5824 93.3635L25.8126 108.012L40.4205 102.997L46.1819 116.395L58.0903 106.739L69.8146 117Z" fill="white" stroke="black" stroke-miterlimit="10"/>
</svg>
