<svg width="264" height="264" viewBox="0 0 264 264" fill="none" xmlns="http://www.w3.org/2000/svg">
<g filter="url(#filter0_d_0_604)">
<path d="M253 127C253 57.4121 196.588 0.999915 127 0.999918C57.4121 0.999921 0.999991 57.4121 0.999994 127C0.999998 196.588 57.4121 253 127 253C196.588 253 253 196.588 253 127Z" fill="white" stroke="black" stroke-miterlimit="10"/>
<path d="M177.612 104.642C177.612 60.4819 141.813 24.683 97.6531 24.683C53.4929 24.683 17.6941 60.4819 17.6941 104.642C17.6941 148.802 53.493 184.601 97.6531 184.601C141.813 184.601 177.612 148.802 177.612 104.642Z" fill="#00FFC7" stroke="black" stroke-miterlimit="10"/>
<path d="M121.667 88.8755C121.667 63.777 101.321 43.4307 76.2224 43.4307C51.1239 43.4307 30.7776 63.777 30.7776 88.8755C30.7776 113.974 51.1239 134.32 76.2224 134.32C101.321 134.32 121.667 113.974 121.667 88.8755Z" fill="black"/>
<path d="M120.574 136.639C120.402 135.624 120.018 134.658 119.447 133.802C118.877 132.945 118.132 132.219 117.262 131.67C116.762 131.396 116.381 130.947 116.192 130.409C116.002 129.871 116.018 129.283 116.235 128.756C116.997 126.964 117.389 125.038 117.389 123.092C117.389 121.145 116.997 119.219 116.235 117.427C115.159 114.966 113.424 112.848 111.223 111.309C109.021 109.769 106.437 108.866 103.756 108.699C101.074 108.533 98.3983 109.109 96.0231 110.365C93.6479 111.621 91.6652 113.507 90.2929 115.817C88.9205 118.127 88.2116 120.771 88.2445 123.457C88.2774 126.144 89.0504 128.769 90.4788 131.045C91.9073 133.32 93.9357 135.158 96.3409 136.355C98.7461 137.552 101.435 138.063 104.112 137.831C104.671 137.784 105.229 137.938 105.685 138.266C106.14 138.594 106.464 139.074 106.596 139.62C106.665 139.949 106.765 140.27 106.894 140.581C107.535 142.291 108.796 143.699 110.426 144.524C112.056 145.35 113.937 145.532 115.696 145.037C117.454 144.541 118.962 143.402 119.921 141.847C120.88 140.291 121.219 138.433 120.872 136.639L120.574 136.639Z" fill="white"/>
</g>
<defs>
<filter id="filter0_d_0_604" x="0.5" y="0.5" width="263" height="263" filterUnits="userSpaceOnUse" color-interpolation-filters="sRGB">
<feFlood flood-opacity="0" result="BackgroundImageFix"/>
<feColorMatrix in="SourceAlpha" type="matrix" values="0 0 0 0 0 0 0 0 0 0 0 0 0 0 0 0 0 0 127 0" result="hardAlpha"/>
<feOffset dx="10" dy="10"/>
<feComposite in2="hardAlpha" operator="out"/>
<feColorMatrix type="matrix" values="0 0 0 0 0 0 0 0 0 0 0 0 0 0 0 0 0 0 0.25 0"/>
<feBlend mode="normal" in2="BackgroundImageFix" result="effect1_dropShadow_0_604"/>
<feBlend mode="normal" in="SourceGraphic" in2="effect1_dropShadow_0_604" result="shape"/>
</filter>
</defs>
</svg>
