<svg width="256" height="283" viewBox="0 0 256 283" fill="none" xmlns="http://www.w3.org/2000/svg">
<g filter="url(#filter0_d_0_617)">
<path d="M169.001 26.5382C113.985 -54.7152 27.2998 121.371 27.2998 121.371C65.6739 124.938 91.9297 46.0967 159.004 64.0944C223.634 81.4234 209.637 163.569 244.638 179.621C244.638 179.621 257.1 -16.3281 169.001 26.5382Z" fill="#FB0066" stroke="black" stroke-miterlimit="10"/>
<path d="M191.157 192.085C153.853 221.96 145.007 222.325 118.711 215.271C93.8687 208.603 84.9416 203.476 67.4713 158.887C50.001 114.298 27.2998 121.371 27.2998 121.371C35.6209 143.402 42.7503 158.319 44.5075 195.369C48.1631 272.528 151.369 300.214 192.934 235.195C212.869 203.962 226.461 194.659 244.638 179.681C244.638 179.621 228.461 162.19 191.157 192.085Z" fill="#FB0066" stroke="black" stroke-miterlimit="10"/>
<path d="M19.9872 57.545L19.9867 57.5446C18.2996 55.8624 16.8466 53.9607 15.667 51.8907L15.6667 51.8901C12.2941 45.989 11.2905 39.0265 12.8591 32.4131C14.4277 25.7997 18.4514 20.0297 24.115 16.2718C29.7787 12.514 36.6588 11.0491 43.362 12.1742C50.0651 13.2992 56.0901 16.9299 60.2166 22.3309C64.3431 27.7318 66.2624 34.4993 65.586 41.2624C64.9096 48.0256 61.688 54.2789 56.5737 58.7557C51.4593 63.2325 44.8346 65.598 38.0414 65.3732C31.2482 65.1484 24.7944 62.3501 19.9872 57.545Z" fill="white" stroke="black"/>
<path d="M69.9036 95.1105L69.9032 95.11C68.7661 93.9763 67.7868 92.6946 66.9918 91.2994L66.9915 91.2989C64.7183 87.3214 64.0418 82.6285 65.0991 78.1709C66.1564 73.7132 68.8685 69.8241 72.6859 67.2912C76.5034 64.7583 81.1408 63.7709 85.6589 64.5292C90.177 65.2875 94.238 67.7347 97.0194 71.3751C99.8007 75.0155 101.094 79.577 100.639 84.1356C100.183 88.6941 98.0112 92.909 94.5639 95.9265C91.1167 98.9439 86.6515 100.538 82.0727 100.387C77.4939 100.235 73.1438 98.3492 69.9036 95.1105Z" fill="white" stroke="black"/>
<path d="M112.616 127.53L112.615 127.53C111.936 126.853 111.352 126.088 110.877 125.255L110.877 125.255C109.52 122.88 109.116 120.079 109.747 117.418C110.379 114.756 111.998 112.435 114.277 110.923C116.556 109.41 119.324 108.821 122.021 109.274C124.719 109.726 127.143 111.187 128.803 113.361C130.464 115.534 131.236 118.257 130.964 120.978C130.692 123.7 129.395 126.216 127.337 128.017C125.28 129.819 122.614 130.771 119.88 130.68C117.147 130.59 114.55 129.464 112.616 127.53Z" fill="white" stroke="black"/>
</g>
<defs>
<filter id="filter0_d_0_617" x="11.6357" y="4.61743" width="244.109" height="277.419" filterUnits="userSpaceOnUse" color-interpolation-filters="sRGB">
<feFlood flood-opacity="0" result="BackgroundImageFix"/>
<feColorMatrix in="SourceAlpha" type="matrix" values="0 0 0 0 0 0 0 0 0 0 0 0 0 0 0 0 0 0 127 0" result="hardAlpha"/>
<feOffset dx="10" dy="10"/>
<feComposite in2="hardAlpha" operator="out"/>
<feColorMatrix type="matrix" values="0 0 0 0 0 0 0 0 0 0 0 0 0 0 0 0 0 0 0.25 0"/>
<feBlend mode="normal" in2="BackgroundImageFix" result="effect1_dropShadow_0_617"/>
<feBlend mode="normal" in="SourceGraphic" in2="effect1_dropShadow_0_617" result="shape"/>
</filter>
</defs>
</svg>
