<svg width="328" height="151" viewBox="0 0 328 151" fill="none" xmlns="http://www.w3.org/2000/svg">
<mask id="path-1-inside-1_0_218" fill="white">
<path d="M0.25 150.19C0.183696 150.19 0.120111 150.164 0.0732269 150.117C0.0263428 150.07 0 150.007 0 149.94V90.7102C0 90.6439 0.0263428 90.5804 0.0732269 90.5335C0.120111 90.4866 0.183696 90.4602 0.25 90.4602H158.89L168.66 68.9602C168.68 68.9155 168.712 68.8775 168.753 68.8508C168.793 68.8242 168.841 68.8101 168.89 68.8102H232.05L326.91 0.0102316C326.959 -0.00341053 327.011 -0.00341053 327.06 0.0102316C327.094 0.00783219 327.129 0.0138929 327.16 0.0278402C327.191 0.0417875 327.219 0.0632128 327.24 0.0902487C327.28 0.135871 327.302 0.19453 327.302 0.255257C327.302 0.315984 327.28 0.374613 327.24 0.420235L269.24 68.8503H295.37C295.436 68.8503 295.5 68.8766 295.547 68.9235C295.594 68.9704 295.62 69.034 295.62 69.1003V126.71C295.62 126.777 295.594 126.84 295.547 126.887C295.5 126.934 295.436 126.96 295.37 126.96H169.05L159.25 150.01C159.23 150.055 159.198 150.093 159.157 150.12C159.117 150.146 159.069 150.16 159.02 150.16L0.25 150.19Z"/>
</mask>
<path d="M0.25 150.19C0.183696 150.19 0.120111 150.164 0.0732269 150.117C0.0263428 150.07 0 150.007 0 149.94V90.7102C0 90.6439 0.0263428 90.5804 0.0732269 90.5335C0.120111 90.4866 0.183696 90.4602 0.25 90.4602H158.89L168.66 68.9602C168.68 68.9155 168.712 68.8775 168.753 68.8508C168.793 68.8242 168.841 68.8101 168.89 68.8102H232.05L326.91 0.0102316C326.959 -0.00341053 327.011 -0.00341053 327.06 0.0102316C327.094 0.00783219 327.129 0.0138929 327.16 0.0278402C327.191 0.0417875 327.219 0.0632128 327.24 0.0902487C327.28 0.135871 327.302 0.19453 327.302 0.255257C327.302 0.315984 327.28 0.374613 327.24 0.420235L269.24 68.8503H295.37C295.436 68.8503 295.5 68.8766 295.547 68.9235C295.594 68.9704 295.62 69.034 295.62 69.1003V126.71C295.62 126.777 295.594 126.84 295.547 126.887C295.5 126.934 295.436 126.96 295.37 126.96H169.05L159.25 150.01C159.23 150.055 159.198 150.093 159.157 150.12C159.117 150.146 159.069 150.16 159.02 150.16L0.25 150.19Z" fill="#FFFF41"/>
<path d="M0.25 150.19V151.19H0.250189L0.25 150.19ZM158.89 90.4602V91.4602H159.534L159.8 90.8739L158.89 90.4602ZM168.66 68.9602L169.57 69.3739L169.574 69.3671L169.577 69.3602L168.66 68.9602ZM168.89 68.8102L168.887 69.8102H168.89V68.8102ZM232.05 68.8102V69.8102H232.374L232.637 69.6198L232.05 68.8102ZM326.91 0.0102316L326.642 -0.953227L326.469 -0.904994L326.323 -0.799271L326.91 0.0102316ZM327.06 0.0102316L326.792 0.97369L326.958 1.01982L327.13 1.00779L327.06 0.0102316ZM327.24 0.0902487L326.453 0.706852L326.47 0.729058L326.489 0.750249L327.24 0.0902487ZM327.24 0.420235L326.489 -0.239765L326.483 -0.233104L326.477 -0.226341L327.24 0.420235ZM269.24 68.8503L268.477 68.2037L267.082 69.8503H269.24V68.8503ZM169.05 126.96V125.96H168.389L168.13 126.569L169.05 126.96ZM159.25 150.01L160.167 150.41L160.17 150.402L159.25 150.01ZM159.02 150.16L159.023 149.16H159.02L159.02 150.16ZM0.25 149.19C0.448496 149.19 0.639387 149.269 0.780334 149.41L-0.63388 150.824C-0.399165 151.059 -0.0811037 151.19 0.25 151.19V149.19ZM0.780334 149.41C0.921086 149.551 1 149.741 1 149.94H-1C-1 150.272 -0.868401 150.59 -0.63388 150.824L0.780334 149.41ZM1 149.94V90.7102H-1V149.94H1ZM1 90.7102C1 90.9093 0.920903 91.1 0.780334 91.2406L-0.63388 89.8264C-0.868217 90.0607 -1 90.3786 -1 90.7102H1ZM0.780334 91.2406C0.639829 91.3811 0.449121 91.4602 0.25 91.4602V89.4602C-0.0817295 89.4602 -0.399607 89.5921 -0.63388 89.8264L0.780334 91.2406ZM0.25 91.4602H158.89V89.4602H0.25V91.4602ZM159.8 90.8739L169.57 69.3739L167.75 68.5465L157.98 90.0465L159.8 90.8739ZM169.577 69.3602C169.518 69.4944 169.421 69.6085 169.299 69.6884L168.206 68.0132C168.002 68.1465 167.841 68.3367 167.743 68.5602L169.577 69.3602ZM169.299 69.6884C169.176 69.7685 169.033 69.8108 168.887 69.8102L168.893 67.8103C168.65 67.8094 168.411 67.8799 168.206 68.0132L169.299 69.6884ZM168.89 69.8102H232.05V67.8102H168.89V69.8102ZM232.637 69.6198L327.497 0.819735L326.323 -0.799271L231.463 68.0007L232.637 69.6198ZM327.178 0.97369C327.052 1.00877 326.918 1.00877 326.792 0.97369L327.328 -0.953227C327.104 -1.01559 326.866 -1.01559 326.642 -0.953227L327.178 0.97369ZM327.13 1.00779C327.001 1.01684 326.872 0.99396 326.754 0.941652L327.566 -0.885971C327.386 -0.966174 327.188 -1.00118 326.99 -0.987325L327.13 1.00779ZM326.754 0.941652C326.636 0.88911 326.532 0.808416 326.453 0.706852L328.027 -0.526355C327.905 -0.68199 327.747 -0.805535 327.566 -0.885971L326.754 0.941652ZM326.489 0.750249C326.369 0.613449 326.302 0.437528 326.302 0.255257H328.302C328.302 -0.0484671 328.192 -0.341708 327.991 -0.569751L326.489 0.750249ZM326.302 0.255257C326.302 0.0728586 326.369 -0.103062 326.489 -0.239765L327.991 1.08024C328.191 0.852288 328.302 0.55911 328.302 0.255257H326.302ZM326.477 -0.226341L268.477 68.2037L270.003 69.4968L328.003 1.06681L326.477 -0.226341ZM269.24 69.8503H295.37V67.8503H269.24V69.8503ZM295.37 69.8503C295.171 69.8503 294.98 69.7713 294.84 69.6306L296.254 68.2164C296.019 67.9818 295.701 67.8503 295.37 67.8503V69.8503ZM294.84 69.6306C294.699 69.4898 294.62 69.299 294.62 69.1003H296.62C296.62 68.7689 296.488 68.4509 296.254 68.2164L294.84 69.6306ZM294.62 69.1003V126.71H296.62V69.1003H294.62ZM294.62 126.71C294.62 126.511 294.699 126.321 294.84 126.18L296.254 127.594C296.488 127.36 296.62 127.042 296.62 126.71H294.62ZM294.84 126.18C294.98 126.039 295.171 125.96 295.37 125.96V127.96C295.702 127.96 296.02 127.828 296.254 127.594L294.84 126.18ZM295.37 125.96H169.05V127.96H295.37V125.96ZM168.13 126.569L158.33 149.619L160.17 150.402L169.97 127.352L168.13 126.569ZM158.333 149.61C158.392 149.476 158.488 149.362 158.611 149.282L159.704 150.957C159.908 150.824 160.069 150.634 160.167 150.41L158.333 149.61ZM158.611 149.282C158.734 149.202 158.877 149.16 159.023 149.16L159.017 151.16C159.26 151.161 159.499 151.091 159.704 150.957L158.611 149.282ZM159.02 149.16L0.249811 149.19L0.250189 151.19L159.02 151.16L159.02 149.16Z" fill="black" mask="url(#path-1-inside-1_0_218)"/>
</svg>
