<svg width="282" height="105" viewBox="0 0 282 105" fill="none" xmlns="http://www.w3.org/2000/svg">
<mask id="path-1-inside-1_0_225" fill="white">
<path d="M281 0.030014C281.066 0.030014 281.13 0.0563736 281.177 0.103256C281.224 0.150139 281.25 0.213707 281.25 0.280014L281.25 73.28C281.25 73.3463 281.224 73.4099 281.177 73.4568C281.13 73.5037 281.066 73.53 281 73.53L229.4 73.53L182.52 104.22C182.474 104.235 182.426 104.235 182.38 104.22C182.35 104.221 182.32 104.216 182.292 104.203C182.264 104.191 182.24 104.173 182.22 104.15C182.177 104.115 182.147 104.066 182.136 104.011C182.125 103.956 182.134 103.899 182.16 103.85L198.08 73.49L0.250003 73.49C0.183688 73.49 0.12012 73.4637 0.0732449 73.4168C0.0263699 73.3699 2.70352e-06 73.3063 2.70931e-06 73.24L7.81218e-06 14.87C7.81798e-06 14.8037 0.026375 14.7401 0.07325 14.6933C0.120125 14.6464 0.183693 14.62 0.250008 14.62L8.10999 14.62L21.82 0.0800402C21.8677 0.0316546 21.9321 0.00306723 22 2.3112e-05L281 0.030014Z"/>
</mask>
<path d="M281 0.030014C281.066 0.030014 281.13 0.0563736 281.177 0.103256C281.224 0.150139 281.25 0.213707 281.25 0.280014L281.25 73.28C281.25 73.3463 281.224 73.4099 281.177 73.4568C281.13 73.5037 281.066 73.53 281 73.53L229.4 73.53L182.52 104.22C182.474 104.235 182.426 104.235 182.38 104.22C182.35 104.221 182.32 104.216 182.292 104.203C182.264 104.191 182.24 104.173 182.22 104.15C182.177 104.115 182.147 104.066 182.136 104.011C182.125 103.956 182.134 103.899 182.16 103.85L198.08 73.49L0.250003 73.49C0.183688 73.49 0.12012 73.4637 0.0732449 73.4168C0.0263699 73.3699 2.70352e-06 73.3063 2.70931e-06 73.24L7.81218e-06 14.87C7.81798e-06 14.8037 0.026375 14.7401 0.07325 14.6933C0.120125 14.6464 0.183693 14.62 0.250008 14.62L8.10999 14.62L21.82 0.0800402C21.8677 0.0316546 21.9321 0.00306723 22 2.3112e-05L281 0.030014Z" fill="#FFDD00"/>
<path d="M281 0.030014L281 1.03001L281 1.03001L281 0.030014ZM229.4 73.53L229.4 72.53L229.102 72.53L228.852 72.6933L229.4 73.53ZM182.52 104.22L182.824 105.173L182.954 105.131L183.068 105.057L182.52 104.22ZM182.38 104.22L182.684 103.267L182.517 103.214L182.341 103.221L182.38 104.22ZM182.22 104.15L182.981 103.501L182.921 103.431L182.851 103.374L182.22 104.15ZM182.16 103.85L183.041 104.324L183.046 104.314L182.16 103.85ZM198.08 73.49L198.966 73.9544L199.734 72.49L198.08 72.49L198.08 73.49ZM8.10999 14.62L8.10999 15.62L8.54151 15.62L8.83756 15.3061L8.10999 14.62ZM21.82 0.0800402L21.1085 -0.622658L21.1003 -0.614418L21.0924 -0.605995L21.82 0.0800402ZM22 2.3112e-05L22.0001 -0.999977L21.9776 -0.999977L21.9552 -0.99897L22 2.3112e-05ZM281 1.03001C280.801 1.03001 280.61 0.950821 280.47 0.810364L281.884 -0.603851C281.65 -0.838074 281.332 -0.969986 281 -0.969986L281 1.03001ZM280.47 0.810364C280.329 0.669907 280.25 0.479202 280.25 0.280014L282.25 0.280014C282.25 -0.0517806 282.118 -0.369621 281.884 -0.603851L280.47 0.810364ZM280.25 0.280014L280.25 73.28L282.25 73.28L282.25 0.280014L280.25 0.280014ZM280.25 73.28C280.25 73.0811 280.329 72.8904 280.47 72.7497L281.884 74.1639C282.118 73.9295 282.25 73.6115 282.25 73.28L280.25 73.28ZM280.47 72.7497C280.611 72.6088 280.801 72.53 281 72.53L281 74.53C281.331 74.53 281.649 74.3986 281.884 74.1639L280.47 72.7497ZM281 72.53L229.4 72.53L229.4 74.53L281 74.53L281 72.53ZM228.852 72.6933L181.972 103.383L183.068 105.057L229.948 74.3667L228.852 72.6933ZM182.216 103.267C182.368 103.219 182.532 103.219 182.684 103.267L182.076 105.173C182.319 105.25 182.581 105.25 182.824 105.173L182.216 103.267ZM182.341 103.221C182.462 103.216 182.582 103.239 182.693 103.287L181.891 105.12C182.057 105.192 182.238 105.226 182.419 105.219L182.341 103.221ZM182.693 103.287C182.803 103.336 182.902 103.409 182.981 103.501L181.459 104.799C181.577 104.938 181.725 105.047 181.891 105.12L182.693 103.287ZM182.851 103.374C182.988 103.485 183.082 103.641 183.117 103.815L181.155 104.207C181.212 104.49 181.365 104.744 181.589 104.926L182.851 103.374ZM183.117 103.815C183.151 103.988 183.124 104.168 183.041 104.324L181.279 103.376C181.143 103.63 181.099 103.924 181.155 104.207L183.117 103.815ZM183.046 104.314L198.966 73.9544L197.194 73.0256L181.274 103.386L183.046 104.314ZM198.08 72.49L0.250003 72.49L0.250003 74.49L198.08 74.49L198.08 72.49ZM0.250003 72.49C0.449191 72.49 0.639895 72.5692 0.780337 72.7097L-0.633847 74.1239C-0.399625 74.3581 -0.0817845 74.49 0.250003 74.49L0.250003 72.49ZM0.780337 72.7097C0.92081 72.8501 1 73.0408 1 73.24L-0.999997 73.24C-0.999997 73.5718 -0.8681 73.8896 -0.633847 74.1239L0.780337 72.7097ZM1 73.24L1.00001 14.87L-0.999992 14.87L-0.999997 73.24L1 73.24ZM1.00001 14.87C1.00001 15.0692 0.920815 15.2599 0.780342 15.4004L-0.633842 13.9862C-0.868095 14.2204 -0.999992 14.5382 -0.999992 14.87L1.00001 14.87ZM0.780342 15.4004C0.6399 15.5408 0.449196 15.62 0.250008 15.62L0.250008 13.62C-0.0817792 13.62 -0.39962 13.7519 -0.633842 13.9862L0.780342 15.4004ZM0.250008 15.62L8.10999 15.62L8.10999 13.62L0.250008 13.62L0.250008 15.62ZM8.83756 15.3061L22.5475 0.766075L21.0924 -0.605995L7.38242 13.934L8.83756 15.3061ZM22.5314 0.782738C22.4022 0.913597 22.2284 0.990784 22.0448 0.999016L21.9552 -0.99897C21.6357 -0.984642 21.3333 -0.850281 21.1085 -0.622658L22.5314 0.782738ZM21.9999 1.00002L281 1.03001L281 -0.969986L22.0001 -0.999977L21.9999 1.00002Z" fill="black" mask="url(#path-1-inside-1_0_225)"/>
</svg>
