<svg width="148" height="28" viewBox="0 0 148 28" fill="none" xmlns="http://www.w3.org/2000/svg">
<g clip-path="url(#clip0_16_67)">
<path d="M8.89058 13.1911H10.211V17.5585L9.09969 18.6352L10.211 19.7422V24.4455H8.89058V27.973H1.26141V22.3458H0V11.9312L3.39468 8.64058V8.43397H0.210797V1.73507H1.83647V0.203125H8.62246V1.73003H10.184V10.8831L8.89396 12.2588L8.89058 13.1911ZM27.8708 0.539078V27.9999H18.8689V23.871L20.1 22.4348V8.31471H19.2568L17.6884 27.9999H10.7743V24.7092L12.6664 8.31471H11.0138V0.539078H27.8708Z" fill="white"/>
<path d="M56.9119 22.8799H57.9928V27.0794H56.9102V28.0083H47.3687V27.0794H30.3649V22.8799H31.4762V18.9056H29.8843V13.6698L30.3902 13.0416V8.17025H44.0263V13.5253H37.2976V14.1233H57.9608V18.5814H56.9085L56.9119 22.8799ZM33.9771 4.15393H30.5521V0.875035H33.9771V0.119141H40.3432V0.875035H43.947V4.15729H40.3432V4.81576H43.8273V7.56722H30.7629V4.81576H33.9771V4.15393ZM34.3667 10.5858V11.1838H35.5084V10.5858H34.3667ZM39.9823 10.5858H38.6923V11.1838H39.9823V10.5858ZM48.3316 17.7348H39.0818V18.3026H48.3316V17.7348ZM39.0818 20.7265H48.3316V20.1587H39.0818V20.7265ZM48.3232 23.2159V22.6179H39.0734V23.2159H48.3232ZM58.0232 11.7582V13.5539H52.3182L51.0871 12.8366L50.0062 13.5539H44.5693V11.9077L45.6806 11.4307L44.689 10.9519V9.66524H50.1563L50.9067 10.0012L51.7769 9.58125V9.2453H44.4799V6.63999H57.6336V10.5589L56.6117 11.0981L58.0232 11.7582ZM49.8847 6.13438H44.5103V1.9736H45.4698V0.329111H56.7685V2.15334H57.8799V6.13102H52.2946L51.4514 5.26426V4.18753H50.8207V5.26426L49.8847 6.13438Z" fill="white"/>
<path d="M70.1551 0.896876H74.2025V6.58624H73.452L73.1147 8.67922H74.1046V13.8243H70.5025V14.5433H74.135V19.7506H72.1231L74.1957 21.3967V27.3196H71.5228L69.9612 25.0166V28.0083H63.9543V25.0972L62.4534 27.3112H59.7805V21.3883L61.8531 19.7422H59.8109V14.5349H63.2933V13.8159H60.1111V8.67419H61.101L60.7637 6.5812H59.9205V0.896876H63.4939V0.0351562H70.1315L70.1551 0.896876ZM67.7217 6.58624H66.4906L66.8279 8.67922H67.4282L67.7217 6.58624ZM88.0543 14.8725H87.2735V27.8537H81.7473V14.8675H80.9041V25.0368L78.4116 27.9696H74.9883V0.567641H87.3916V4.48653L84.7187 7.20943H80.9041V8.19545H88.0527L88.0543 14.8725Z" fill="white"/>
<path d="M97.4541 12.4741V27.8793H90.0054V0.418457H103.37V12.4741H97.4541ZM96.5232 5.17387V5.98184H98.8656V5.17387H96.5232ZM98.8656 8.824V8.01603H96.5232V8.824H98.8656ZM117.574 0.425176V27.8793H108.446V27.2813H102.829V26.2734H98.0545V22.1361H98.8976V17.589H98.0545V13.1376H109.596V17.589H108.876V22.1361H109.596V24.3803L110.196 23.7806V12.4741H104.161V0.418457L117.574 0.425176ZM104.601 17.028H102.77V17.626H104.601V17.028ZM104.601 19.6299H102.77V20.2279H104.601V19.6299ZM104.601 22.8601V22.2252H102.77V22.8534L104.601 22.8601ZM108.837 5.17387V5.98184H111.299V5.17387H108.837ZM108.837 8.824H111.299V8.01603H108.837V8.824Z" fill="white"/>
<path d="M144.037 23.8409L147.708 25.6063V27.8203H136.507L134.135 25.0369H133.173L130.801 27.8203H119.95V25.6063L123.343 23.8409H120.011V19.0553H128.18V18.3968H125.927V14.2394H125.236V16.8111L123.854 18.3968H120.101V9.45204H125.927V8.73478H120.07V0.35779H125.236V3.76939H125.927V0.388025H131.904V17.3201H138.818V19.1443H139.629V18.3968H145.784L146.386 19.1443H147.587V23.8476L144.037 23.8409ZM148 10.9773V14.1789H147.219V17.9181H139.322V15.9443L140.253 15.0171V14.1772H132.531V10.9773H140.249V10.349H132.531V6.96935H139.799L140.369 6.43014H137.455V4.66639H141.18V5.65241L141.72 5.14848V4.09695H132.565V1.5773L134.723 0H141.089V0.656788H147.607V7.29858L145.865 8.85404H147.214V10.9773H148ZM133.676 16.8111L132.534 16.1829V14.7467H138.691V16.8111H133.676ZM136.949 6.43014H133.435L132.624 5.77335V4.66639H136.949V6.43014Z" fill="white"/>
</g>
<defs>
<clipPath id="clip0_16_67">
<rect width="148" height="28" fill="white"/>
</clipPath>
</defs>
</svg>
