<svg width="190" height="37" viewBox="0 0 190 37" fill="none" xmlns="http://www.w3.org/2000/svg">
<path d="M189 1H1V36.599H189V1Z" fill="black" stroke="white" stroke-width="0.75" stroke-linecap="round" stroke-linejoin="round"/>
<path d="M38.2493 1H1V36.599H38.2493V1Z" fill="#0000FF" stroke="white" stroke-width="0.75" stroke-miterlimit="10"/>
<path d="M29.6119 8H23.6171C23.6171 8 19.0742 8 19.0742 12.7815V19.0694H15.5588V24.3339H19.1149V36.9999H24.5796V24.2439H30.1992V19.0203H24.547V14.9921C24.5312 14.773 24.5625 14.553 24.6389 14.3472C24.7153 14.1413 24.835 13.9544 24.9897 13.799C25.1444 13.6437 25.3307 13.5236 25.5357 13.4469C25.7408 13.3702 25.9599 13.3387 26.1782 13.3546H29.6364L29.6119 8Z" fill="white"/>
<path d="M88.1163 23.8512C87.7411 23.2862 87.1457 22.5003 86.4851 21.7061V28.4689H84.1769V21.9763C83.6122 22.5846 83.0044 23.151 82.3581 23.6711C82.0984 22.8913 81.745 22.1463 81.3059 21.4523C83.2305 20.0513 84.7982 18.2138 85.8815 16.0895H81.8034V14.0672H85.017C84.5645 13.2789 84.0689 12.5163 83.5325 11.7829L85.2943 10.8086C85.9093 11.5899 86.4733 12.4103 86.9826 13.2648L85.7102 14.0836H87.1457L87.4394 14.0017L88.6954 14.8859C88.1094 16.3428 87.3827 17.7386 86.5259 19.0533V19.3317L86.844 19.6183C87.352 19.0392 87.8207 18.4265 88.2468 17.7843L89.6905 19.0124C88.9972 19.561 88.4018 20.1586 87.8716 20.609C88.5323 21.2148 89.1277 21.8371 89.3724 22.0991L88.1163 23.8512ZM98.3034 12.3888C98.3034 12.3888 98.3034 13.2075 98.3034 13.4859C98.1321 22.9751 97.9608 26.2092 97.2676 27.2244C97.0979 27.5186 96.862 27.7688 96.5787 27.955C96.2955 28.1413 95.9727 28.2584 95.6363 28.297C94.733 28.4114 93.8207 28.4388 92.9122 28.3788C92.8403 27.6245 92.6184 26.8923 92.2597 26.2255C93.2547 26.3238 94.1356 26.3238 94.5842 26.3238C94.722 26.3373 94.8609 26.3105 94.9839 26.2466C95.1069 26.1826 95.2088 26.0843 95.2775 25.9635C95.7994 25.3249 95.987 22.271 96.0931 14.5584H93.5647C93.32 20.9774 92.4391 25.5705 89.0624 28.4771C88.5692 27.824 87.9966 27.2354 87.3578 26.725C90.4735 24.3752 91.1667 20.175 91.2972 14.5666H88.9319V12.3478L98.3034 12.3888Z" fill="white"/>
<path d="M115.219 25.5295H117.772V27.0933H115.219V28.5261H113.009V27.0933H101.141V25.5295H103.8V20.9691H101.696V19.4299H101.827C101.492 19.2252 101.093 18.996 100.872 18.8813C101.245 18.5285 101.535 18.0975 101.722 17.6192C101.91 17.1409 101.99 16.6269 101.957 16.114V14.9677H109.028V18.0708H103.401C103.264 18.563 103.034 19.0244 102.724 19.4299H109.926C109.735 18.9153 109.459 18.4365 109.11 18.0135C109.973 17.9272 110.828 17.7656 111.663 17.5304C111.151 17.1268 110.708 16.643 110.35 16.0976L110.945 15.9257H109.86V14.7385C109.637 14.4565 109.379 14.2035 109.094 13.9852C110.513 13.4776 110.725 12.8963 110.725 12.2577V11.3325H115.839V12.8799C115.839 13.2156 115.839 13.3876 116.141 13.3876H116.777C117.101 13.3858 117.424 13.3474 117.739 13.2729C117.739 13.7233 117.796 14.1572 117.845 14.6075C117.511 14.7022 117.164 14.7409 116.818 14.7221H116.051L117.079 15.0987C116.685 16.0767 116.03 16.9266 115.186 17.555C116.075 17.7918 116.985 17.9426 117.902 18.0053C117.505 18.4368 117.165 18.9185 116.891 19.4381H117.323V20.9773H115.219V25.5295ZM104.379 12.8226H101.19V11.6928H104.379V10.874H106.386V11.6928H109.469V12.8226H106.386V13.363H108.98V14.4765H101.737V13.363H104.379V12.8226ZM103.613 16.0403V16.1549C103.613 16.4169 103.613 16.6953 103.613 16.9737H104.665V16.0403H103.613ZM105.962 20.9528V21.5996H113.009V20.9528H105.962ZM105.962 23.5727H113.009V22.9177H105.962V23.5727ZM113.009 25.5132V24.8909H105.962V25.5132H113.009ZM107.299 16.0239H106.19V16.9819H107.299V16.0239ZM116.508 19.4299C115.464 19.2712 114.444 18.9796 113.474 18.562C112.52 18.9549 111.527 19.2458 110.513 19.4299H116.508ZM112.43 12.7817C112.388 13.1705 112.265 13.546 112.068 13.8833C111.871 14.2207 111.605 14.5122 111.288 14.7385H115.635H115.749H115.692C114.322 14.7385 114.102 14.1162 114.102 12.8963V12.7981L112.43 12.7817ZM112.169 15.9257C112.503 16.3073 112.911 16.6166 113.368 16.8345C113.817 16.6038 114.223 16.2963 114.567 15.9257H112.169Z" fill="white"/>
<path d="M68.6963 26.5526L64.6834 22.6554C64.574 22.5294 64.4478 22.4191 64.3083 22.3279C65.4236 20.4307 65.8019 18.1868 65.3706 16.0268C64.9393 13.8668 63.7288 11.9427 61.9712 10.6235C60.2136 9.30434 58.0327 8.68297 55.8468 8.8786C53.661 9.07423 51.624 10.0731 50.1266 11.6836C48.6292 13.2941 47.7768 15.4028 47.733 17.6053C47.6891 19.8079 48.4569 21.9491 49.889 23.6184C51.3211 25.2876 53.3167 26.3674 55.4931 26.6505C57.6694 26.9336 59.8733 26.4002 61.682 25.1526V25.2099L65.6867 29.1071C66.0321 29.4734 66.5045 29.6924 67.0063 29.7186C67.5081 29.7449 68.0007 29.5765 68.3822 29.2482C68.7637 28.92 69.0048 28.4571 69.0557 27.9553C69.1066 27.4535 68.9633 26.9513 68.6555 26.5526H68.6963ZM56.6333 23.5315C55.5041 23.5315 54.4003 23.1953 53.4614 22.5656C52.5225 21.9358 51.7907 21.0407 51.3586 19.9935C50.9264 18.9462 50.8134 17.7939 51.0337 16.6821C51.254 15.5704 51.7977 14.5492 52.5962 13.7477C53.3946 12.9461 54.412 12.4003 55.5195 12.1792C56.627 11.958 57.7749 12.0715 58.8182 12.5053C59.8614 12.9391 60.7531 13.6737 61.3804 14.6162C62.0078 15.5587 62.3426 16.6667 62.3426 17.8002C62.3426 19.3203 61.7411 20.778 60.6704 21.8528C59.5997 22.9276 58.1475 23.5315 56.6333 23.5315Z" fill="white" stroke="black" stroke-width="0.75" stroke-miterlimit="10"/>
<path opacity="0.5" d="M129.321 11.9053V28.5831" stroke="white" stroke-miterlimit="10"/>
</svg>
