<svg width="100" height="100" viewBox="0 0 100 100" fill="none" xmlns="http://www.w3.org/2000/svg">
<path d="M62.1351 4.59263L62.1642 4.6024L62.1944 4.60852L74.7363 7.15539L83.213 16.7436L83.2333 16.7667L83.2564 16.787L92.8446 25.2637L95.3915 37.8056L95.3976 37.8358L95.4074 37.8649L99.4727 50L95.4074 62.1351L95.3976 62.1642L95.3915 62.1944L92.8446 74.7363L83.2564 83.213L83.2333 83.2333L83.213 83.2564L74.7363 92.8446L62.1944 95.3915L62.1642 95.3976L62.1351 95.4074L50 99.4727L37.8649 95.4074L37.8358 95.3976L37.8056 95.3915L25.2637 92.8446L16.787 83.2564L16.7667 83.2333L16.7436 83.213L7.15539 74.7363L4.60852 62.1944L4.6024 62.1642L4.59263 62.1351L0.527312 50L4.59263 37.8649L4.6024 37.8358L4.60852 37.8056L7.1554 25.2637L16.7436 16.787L16.7667 16.7667L16.787 16.7436L25.2637 7.1554L37.8056 4.60852L37.8358 4.6024L37.8649 4.59263L50 0.527312L62.1351 4.59263Z" fill="#FFFF41" stroke="black"/>
</svg>
